<svg xmlns="http://www.w3.org/2000/svg"
     viewBox="0 0 274 96"
     width="274" height="96"
     fill="none">
  <defs>
    <!-- outer bloom -->
    <filter id="glow-outer" x="-40%" y="-40%" width="180%" height="180%">
      <feGaussianBlur in="SourceGraphic" stdDeviation="4" result="blur1"/>
      <feGaussianBlur in="SourceGraphic" stdDeviation="10" result="blur2"/>
      <feMerge>
        <feMergeNode in="blur2"/>
        <feMergeNode in="blur1"/>
        <feMergeNode in="SourceGraphic"/>
      </feMerge>
    </filter>
    <!-- tight inner glow -->
    <filter id="glow-inner" x="-10%" y="-10%" width="120%" height="120%">
      <feGaussianBlur in="SourceGraphic" stdDeviation="1.5" result="blur"/>
      <feMerge>
        <feMergeNode in="blur"/>
        <feMergeNode in="SourceGraphic"/>
      </feMerge>
    </filter>
  </defs>
  <!-- bloom layer -->
  <g fill="#00FF77" opacity="0.45" filter="url(#glow-outer)">
  <rect x="14" y="14" width="8" height="8" rx="1.5"/>
  <rect x="54" y="14" width="8" height="8" rx="1.5"/>
  <rect x="14" y="24" width="8" height="8" rx="1.5"/>
  <rect x="54" y="24" width="8" height="8" rx="1.5"/>
  <rect x="24" y="34" width="8" height="8" rx="1.5"/>
  <rect x="44" y="34" width="8" height="8" rx="1.5"/>
  <rect x="34" y="44" width="8" height="8" rx="1.5"/>
  <rect x="24" y="54" width="8" height="8" rx="1.5"/>
  <rect x="44" y="54" width="8" height="8" rx="1.5"/>
  <rect x="14" y="64" width="8" height="8" rx="1.5"/>
  <rect x="54" y="64" width="8" height="8" rx="1.5"/>
  <rect x="14" y="74" width="8" height="8" rx="1.5"/>
  <rect x="54" y="74" width="8" height="8" rx="1.5"/>
  <rect x="80" y="14" width="8" height="8" rx="1.5"/>
  <rect x="90" y="14" width="8" height="8" rx="1.5"/>
  <rect x="100" y="14" width="8" height="8" rx="1.5"/>
  <rect x="110" y="14" width="8" height="8" rx="1.5"/>
  <rect x="120" y="14" width="8" height="8" rx="1.5"/>
  <rect x="80" y="24" width="8" height="8" rx="1.5"/>
  <rect x="80" y="34" width="8" height="8" rx="1.5"/>
  <rect x="80" y="44" width="8" height="8" rx="1.5"/>
  <rect x="90" y="44" width="8" height="8" rx="1.5"/>
  <rect x="100" y="44" width="8" height="8" rx="1.5"/>
  <rect x="110" y="44" width="8" height="8" rx="1.5"/>
  <rect x="80" y="54" width="8" height="8" rx="1.5"/>
  <rect x="80" y="64" width="8" height="8" rx="1.5"/>
  <rect x="80" y="74" width="8" height="8" rx="1.5"/>
  <rect x="90" y="74" width="8" height="8" rx="1.5"/>
  <rect x="100" y="74" width="8" height="8" rx="1.5"/>
  <rect x="110" y="74" width="8" height="8" rx="1.5"/>
  <rect x="120" y="74" width="8" height="8" rx="1.5"/>
  <rect x="146" y="14" width="8" height="8" rx="1.5"/>
  <rect x="146" y="24" width="8" height="8" rx="1.5"/>
  <rect x="146" y="34" width="8" height="8" rx="1.5"/>
  <rect x="146" y="44" width="8" height="8" rx="1.5"/>
  <rect x="146" y="54" width="8" height="8" rx="1.5"/>
  <rect x="146" y="64" width="8" height="8" rx="1.5"/>
  <rect x="146" y="74" width="8" height="8" rx="1.5"/>
  <rect x="156" y="74" width="8" height="8" rx="1.5"/>
  <rect x="166" y="74" width="8" height="8" rx="1.5"/>
  <rect x="176" y="74" width="8" height="8" rx="1.5"/>
  <rect x="186" y="74" width="8" height="8" rx="1.5"/>
  <rect x="212" y="14" width="8" height="8" rx="1.5"/>
  <rect x="222" y="14" width="8" height="8" rx="1.5"/>
  <rect x="232" y="14" width="8" height="8" rx="1.5"/>
  <rect x="242" y="14" width="8" height="8" rx="1.5"/>
  <rect x="252" y="14" width="8" height="8" rx="1.5"/>
  <rect x="212" y="24" width="8" height="8" rx="1.5"/>
  <rect x="252" y="24" width="8" height="8" rx="1.5"/>
  <rect x="212" y="34" width="8" height="8" rx="1.5"/>
  <rect x="252" y="34" width="8" height="8" rx="1.5"/>
  <rect x="212" y="44" width="8" height="8" rx="1.5"/>
  <rect x="252" y="44" width="8" height="8" rx="1.5"/>
  <rect x="212" y="54" width="8" height="8" rx="1.5"/>
  <rect x="252" y="54" width="8" height="8" rx="1.5"/>
  <rect x="212" y="64" width="8" height="8" rx="1.5"/>
  <rect x="252" y="64" width="8" height="8" rx="1.5"/>
  <rect x="212" y="74" width="8" height="8" rx="1.5"/>
  <rect x="222" y="74" width="8" height="8" rx="1.5"/>
  <rect x="232" y="74" width="8" height="8" rx="1.5"/>
  <rect x="242" y="74" width="8" height="8" rx="1.5"/>
  <rect x="252" y="74" width="8" height="8" rx="1.5"/>
  </g>
  <!-- crisp pixel layer -->
  <g fill="#00FF77" filter="url(#glow-inner)">
  <rect x="14" y="14" width="8" height="8" rx="1.5"/>
  <rect x="54" y="14" width="8" height="8" rx="1.5"/>
  <rect x="14" y="24" width="8" height="8" rx="1.5"/>
  <rect x="54" y="24" width="8" height="8" rx="1.5"/>
  <rect x="24" y="34" width="8" height="8" rx="1.5"/>
  <rect x="44" y="34" width="8" height="8" rx="1.5"/>
  <rect x="34" y="44" width="8" height="8" rx="1.5"/>
  <rect x="24" y="54" width="8" height="8" rx="1.5"/>
  <rect x="44" y="54" width="8" height="8" rx="1.5"/>
  <rect x="14" y="64" width="8" height="8" rx="1.5"/>
  <rect x="54" y="64" width="8" height="8" rx="1.5"/>
  <rect x="14" y="74" width="8" height="8" rx="1.5"/>
  <rect x="54" y="74" width="8" height="8" rx="1.5"/>
  <rect x="80" y="14" width="8" height="8" rx="1.5"/>
  <rect x="90" y="14" width="8" height="8" rx="1.5"/>
  <rect x="100" y="14" width="8" height="8" rx="1.5"/>
  <rect x="110" y="14" width="8" height="8" rx="1.5"/>
  <rect x="120" y="14" width="8" height="8" rx="1.5"/>
  <rect x="80" y="24" width="8" height="8" rx="1.5"/>
  <rect x="80" y="34" width="8" height="8" rx="1.5"/>
  <rect x="80" y="44" width="8" height="8" rx="1.5"/>
  <rect x="90" y="44" width="8" height="8" rx="1.5"/>
  <rect x="100" y="44" width="8" height="8" rx="1.5"/>
  <rect x="110" y="44" width="8" height="8" rx="1.5"/>
  <rect x="80" y="54" width="8" height="8" rx="1.5"/>
  <rect x="80" y="64" width="8" height="8" rx="1.5"/>
  <rect x="80" y="74" width="8" height="8" rx="1.5"/>
  <rect x="90" y="74" width="8" height="8" rx="1.5"/>
  <rect x="100" y="74" width="8" height="8" rx="1.5"/>
  <rect x="110" y="74" width="8" height="8" rx="1.5"/>
  <rect x="120" y="74" width="8" height="8" rx="1.5"/>
  <rect x="146" y="14" width="8" height="8" rx="1.5"/>
  <rect x="146" y="24" width="8" height="8" rx="1.5"/>
  <rect x="146" y="34" width="8" height="8" rx="1.5"/>
  <rect x="146" y="44" width="8" height="8" rx="1.5"/>
  <rect x="146" y="54" width="8" height="8" rx="1.5"/>
  <rect x="146" y="64" width="8" height="8" rx="1.5"/>
  <rect x="146" y="74" width="8" height="8" rx="1.5"/>
  <rect x="156" y="74" width="8" height="8" rx="1.5"/>
  <rect x="166" y="74" width="8" height="8" rx="1.5"/>
  <rect x="176" y="74" width="8" height="8" rx="1.5"/>
  <rect x="186" y="74" width="8" height="8" rx="1.5"/>
  <rect x="212" y="14" width="8" height="8" rx="1.5"/>
  <rect x="222" y="14" width="8" height="8" rx="1.5"/>
  <rect x="232" y="14" width="8" height="8" rx="1.5"/>
  <rect x="242" y="14" width="8" height="8" rx="1.5"/>
  <rect x="252" y="14" width="8" height="8" rx="1.5"/>
  <rect x="212" y="24" width="8" height="8" rx="1.5"/>
  <rect x="252" y="24" width="8" height="8" rx="1.5"/>
  <rect x="212" y="34" width="8" height="8" rx="1.5"/>
  <rect x="252" y="34" width="8" height="8" rx="1.5"/>
  <rect x="212" y="44" width="8" height="8" rx="1.5"/>
  <rect x="252" y="44" width="8" height="8" rx="1.5"/>
  <rect x="212" y="54" width="8" height="8" rx="1.5"/>
  <rect x="252" y="54" width="8" height="8" rx="1.5"/>
  <rect x="212" y="64" width="8" height="8" rx="1.5"/>
  <rect x="252" y="64" width="8" height="8" rx="1.5"/>
  <rect x="212" y="74" width="8" height="8" rx="1.5"/>
  <rect x="222" y="74" width="8" height="8" rx="1.5"/>
  <rect x="232" y="74" width="8" height="8" rx="1.5"/>
  <rect x="242" y="74" width="8" height="8" rx="1.5"/>
  <rect x="252" y="74" width="8" height="8" rx="1.5"/>
  </g>
</svg>